<svg xmlns:dc="http://purl.org/dc/elements/1.1/" xmlns:cc="http://creativecommons.org/ns#" xmlns:rdf="http://www.w3.org/1999/02/22-rdf-syntax-ns#" xmlns:svg="http://www.w3.org/2000/svg" xmlns="http://www.w3.org/2000/svg" height="82.773331" width="269.17334" xml:space="preserve" version="1.1" style=""><rect id="backgroundrect" width="100%" height="100%" x="0" y="0" fill="none" stroke="none"/><metadata id="metadata8"><rdf:RDF><cc:Work rdf:about=""><dc:format>image/svg+xml</dc:format><dc:type rdf:resource="http://purl.org/dc/dcmitype/StillImage"/></cc:Work></rdf:RDF></metadata><defs id="defs6"/><g class="currentLayer" style=""><title>Layer 1</title><g id="g10" class="" fill="#ffffff" fill-opacity="1"><g id="g12" stroke-width="0" fill="#ffffff" fill-opacity="1"><path id="path14" style="fill-rule: nonzero; stroke: none;" d="m242.090664221832,39.324400105450444 c-0.18799999810141826,-0.7245333260163879 -0.47199999523334796,-1.5442666510713663 -0.6919999930116034,-1.953733313602895 c0,0 0.12533333206761219,-0.12759999871138814 0.37866666284257294,0.03186666634485033 c0.25066666413522437,0.15626666508855475 1.858666647896291,1.260399987271423 1.858666647896291,1.260399987271423 c0.8186666583990837,1.1973333212416568 1.323999986629137,6.113999938255698 1.3559999863059742,7.880133253753135 c-0.7573333256851459,-0.34946666313745905 -1.8279999815393222,-0.9483999904222611 -2.5226666411906624,-1.6098666504088823 zm-4.853333284320301,-4.570399953844266 c-1.3226666533092688,-1.450399985352644 -2.4266666421601504,-2.8051999716707368 -3.4986666313341948,-4.411333288783988 c0.6933333263314716,-1.3261333199409262 1.198666654561525,-4.822933284627306 0.8826666577527581,-6.1777332709453985 c-0.12533333206761219,-0.4109333291833837 -1.2599999872754626,-1.923866647237847 -1.4506666520166176,-2.143199978356168 c-0.2826666638120615,-0.28586666377974523 -1.1973333212416568,-1.3249333199530446 -1.6386666501180356,-1.3249333199530446 c-0.09466666571064325,0 -0.18799999810141826,0.030666666356968936 -0.22133333109812364,0.06253333270181927 l0.1266666653874804,1.1666666548846878 c-1.229333320918494,0.7889333253660226 -2.8359999713596924,1.8593333145562252 -4.28666662337631,2.9322666370541777 c0,0.4082666625436473 0.03199999967683715,1.0390666561732997 0.06266666603380609,1.260399987271423 c0.22133333109812364,0.1869333314455237 0.47333332855321614,0.34626666316977533 0.7573333256851459,0.44013332888849765 c0.5666666609439912,-0.09386666571872232 2.331999976449507,-0.5370666612429168 2.805333305002723,-0.47146666190540065 l-1.733333315828679,2.614666640261569 l-1.9866666466036398,1.4186666523397804 l-2.489333308193957,-0.7890666586980094 c-0.1573333317444493,-0.031199999684916224 -0.3159999968087669,0 -0.40933332919954185,0.12813333203933544 l-1.8293333148591904,1.9838666466319164 c-0.09466666571064325,0.0937333323867355 -0.1573333317444493,0.19013333141320743 -0.1573333317444493,0.411466662511331 l-0.06266666603380609,2.2375999774028377 c0,0 -0.03199999967683715,0.34573332984182803 -0.03199999967683715,0.7233333260285064 c0,1.6067999837731854 0.7253333260083088,2.365199976114226 0.7253333260083088,2.365199976114226 l1.1973333212416568,-1.7343999824845735 c-0.1573333317444493,-0.24999999747529023 -0.44133332887637905,-0.9458666571145115 -0.5039999949101851,-1.260399987271423 c0,-0.06253333270181927 0.03199999967683715,-1.9218666472580443 0.03199999967683715,-1.9218666472580443 l1.1653333215648196,-0.8515999913998287 l3.089333302134653,2.1743999780410843 c0,0 0.8506666580759209,1.5755999840882693 1.6706666497948728,2.5229333078546357 c0.5359999945870222,0.6614666599866212 3.214666634202265,2.4557333085332775 4.506666621154565,3.2141333008743183 c0.1266666653874804,0.6921333263435901 0.4106666625194101,1.828133314871309 0.6306666602976656,2.426533308828164 l3.782666628466125,3.8775999608407417 l-2.237333310738864,2.8046666383427894 c-0.7879999920421148,0.5031999949182642 -1.5453333177272606,1.4198666523276617 -1.4826666516934546,2.268799977087754 h2.585333307224468 l0.2839999971319297,-1.4817333183695467 l3.089333302134653,-3.4349332986444945 c0.1573333317444493,-0.1906666647411547 0.1573333317444493,-0.28439999712789016 0.06266666603380609,-0.5682666609278331 l-0.8826666577527581,-2.9609333034313443 c0.44133332887637905,-0.5051999948980666 1.3866666526629432,-1.7650666488415423 1.3866666526629432,-3.2786666335559396 c0,-2.741599972313023 -2.99466663642401,-3.434399965316547 -3.939999960210574,-4.223466624014557 zm-13.931999859302973,-5.640533276370495 c-0.09466666571064325,0.030666666356968936 -2.3959999758031816,0.6614666599866212 -2.3959999758031816,0.6614666599866212 c0,0 -1.0719999891740444,0.4082666625436473 -1.5453333177272606,0.7233333260285064 c-0.47199999523334796,0.3157333301447932 -1.0079999898203702,0.8515999913998287 -1.0386666561773392,1.1354666551997716 l2.0493333126374456,0.47133332857341387 c0.3146666634888986,-0.34573332984182803 0.6613333266546344,-0.7234666593604933 0.9759999901435331,-0.9765333234714804 l0.47333332855321614,-0.22079999777017636 l1.70266664947171,-1.731733315844837 c0,0 -0.0639999993536743,-0.0943999990466696 -0.22133333109812364,-0.06253333270181927 zm9.677333235603502,17.710933154473466 l2.899999970713367,-2.7739999719858206 l1.1973333212416568,1.197866654569604 l-3.1213333018114904,2.6490666399141687 c-0.25199999745509255,0.3145333301569118 -0.43999999555651076,0.8197333250549783 -0.5973333273009602,1.1347999885398372 h-2.3026666434124063 c0.1266666653874804,-0.8509333247398945 1.3253333199490052,-1.9218666472580443 1.9239999805698336,-2.2077333110377895 zm15.41333317767656,5.863999940780407 H217.59999780249262 v-1.010399989796133 h30.79599968899615 v1.010399989796133 " stroke-width="0" fill="#ffffff" fill-opacity="1"/><path id="path16" style="fill-rule: nonzero; stroke: none;" d="m94.21306571522406,52.688399970489556 v-1.986399979939666 h1.9233333139098996 v-17.146399826841268 h-1.9233333139098996 v-1.9218666472580443 h8.573866580080567 V50.70199999054989 h1.9547999802587894 v1.986399979939666 zm100.94426564724677,-2.5234666411825826 h-0.09466666571064325 c-1.229333320918494,1.7343999824845735 -2.8679999710365296,2.901066637369261 -5.390666612227191,2.901066637369261 c-3.4359999653003888,0 -5.57866661032861,-2.9322666370541777 -5.57866661032861,-6.432266601708241 c0,-4.22079995737482 2.99466663642401,-6.901066596973905 7.785333254710505,-6.901066596973905 c1.9546666469268026,0 2.99466663642401,0.4433333288561814 2.99466663642401,0.4433333288561814 v-1.3261333199409262 c0,-2.5515999742318023 -1.5759999840842296,-3.908266627197711 -3.8759999608569,-3.908266627197711 c-3.1839999678452964,0 -4.8239999512832,2.460933308480764 -4.8239999512832,2.460933308480764 l-1.1653333215648196,-1.4198666523276617 c2.111999978671252,-3.2786666335559396 5.357333279230486,-4.7603999519254865 8.383999915331334,-4.7603999519254865 c5.1066666150952615,0 8.131999917876241,3.025999969440913 8.131999917876241,7.627599922970095 v11.852133213640547 h2.142666645028221 v1.986399979939666 h-8.509333247398946 zm-0.2839999971319297,-7.91093325344209 c-0.18933333142128647,-0.18799999810141826 -0.5986666606208284,-0.43999999555651076 -1.4493333186967494,-0.43999999555651076 c-1.9853333132837716,0 -2.4266666421601504,1.955733313582697 -2.4266666421601504,3.971333293227477 c0,1.986399979939666 0.5986666606208284,3.5931999637128516 2.29999997677267,3.5931999637128516 c0.819999991718952,0 1.323999986629137,-0.34839999648156444 1.5759999840842296,-0.6302666603017051 zm17.777333153802907,8.447999914685008 h2.585333307224468 V52.688399970489556 H205.99999791963916 v-26.918666394819383 h-2.29999997677267 v-1.9218666472580443 h8.950666576275324 zM89.69013242756712,33.55560016370863 V49.12640000646162 c0,1.0703999891902027 0.6926666596715375,1.3223999866452951 1.354666652986106,1.3223999866452951 c0.6302666603017051,0 1.229199987586507,-0.21813333113043992 1.229199987586507,-0.21813333113043992 v1.9218666472580443 c0,0 -1.260399987271423,0.7858666587303257 -4.06559995894216,0.7858666587303257 c-3.2786666335559396,0 -5.201599947469878,-1.6067999837731854 -5.201599947469878,-5.010399949400777 v-14.372399854855447 h-2.2385333107267456 v-1.4186666523397804 c2.4915999748377327,-1.984399979959864 5.391599945551099,-4.255333290359407 7.692133255651717,-6.177199937617451 h1.2297333209144543 v5.673999942699187 h2.583866640572613 v1.9218666472580443 zm5.752533275239425,-7.501999924238509 c0,1.8593333145562252 1.6709333164588465,3.0885333021427326 4.066133292270107,3.0885333021427326 c2.3953333091432474,0 4.066266625602094,-1.229199987586507 4.066266625602094,-3.0885333021427326 c0,-1.8599999812161592 -1.6709333164588465,-3.088666635474719 -4.066266625602094,-3.088666635474719 c-2.3951999758112605,0 -4.066133292270107,1.2286666542585598 -4.066133292270107,3.088666635474719 m-23.84626642584706,12.197333210154428 c0,-1.8906666475731282 -0.5990666606167888,-3.372399965942675 -2.2375999774028377,-3.372399965942675 c-1.6394666501099566,0 -2.3014666434245252,1.4817333183695467 -2.3014666434245252,3.372399965942675 v12.451066540925348 h1.9223999805859917 v1.986399979939666 h-10.527066560355514 v-1.986399979939666 h1.9541333135988554 v-17.146399826841268 h-1.9541333135988554 v-1.9218666472580443 h8.289999916280625 v3.2141333008743183 h0.0937333323867355 c0.7886666587020489,-1.7662666488294239 2.616666640241371,-3.6255999633856493 5.548533277299588,-3.6255999633856493 c3.0890666354706795,0 4.980133283039768,1.8911999809010756 5.5790666103245705,4.380799955759006 c0.22039999777421587,0.9785333234512827 0.2833333304719956,2.585333307224468 0.2833333304719956,3.403066632299644 v11.69586654855199 h2.5209333078748335 V52.688399970489556 H71.59639927695947 zM35.5051996414387,42.15973341015021 c0,6.367199935698672 3.9083999605296973,11.537066550155687 10.591199893041175,11.537066550155687 c6.681733265855583,0 10.590533226381242,-5.169866614457015 10.590533226381242,-11.537066550155687 c0,-6.366666602370724 -3.908799960525658,-11.535866550167807 -10.590533226381242,-11.535866550167807 c-6.682799932511479,0 -10.591199893041175,5.169199947797081 -10.591199893041175,11.535866550167807 m7.817199921055355,-0.06186666604188516 c0,-6.430266601728438 0.598933327284802,-9.268266573067933 2.7739999719858206,-9.268266573067933 c2.1749333113690317,0 2.7733333053258864,2.8379999713394946 2.7733333053258864,9.268266573067933 c0,6.4290666017405576 -0.5983999939568547,9.265599906428196 -2.7733333053258864,9.265599906428196 c-2.175066644701018,0 -2.7739999719858206,-2.8365333046876398 -2.7739999719858206,-9.265599906428196 m92.92293239491958,-1.0729333224979523 c0,-5.547466610643694 0.44133332887637905,-7.627599922970095 2.3333333097693756,-7.627599922970095 c1.9213333139300972,0 2.3013333100925384,2.017599979624582 2.3639999761263444,7.627599922970095 zm9.645333235926664,6.051466605553879 c-0.9453333237865641,1.1047999888428026 -2.4266666421601504,1.953733313602895 -4.633333286542046,1.953733313602895 c-1.9239999805698336,0 -4.886666617317006,-1.0703999891902027 -5.011999949384619,-5.955733273187341 h11.253333219687732 c0.030666666356968936,-0.37759999618667833 0.06266666603380609,-1.1359999885277188 0.06266666603380609,-1.5135999847143973 c0,-5.923866606842491 -2.4266666421601504,-10.33853322892615 -8.762666578173906,-10.33853322892615 c-6.366933269034699,0 -9.613733236245787,4.887999950636874 -9.613733236245787,10.9693332225558 c0,6.083333271898729 3.246799967211089,10.874399890181186 9.613733236245787,10.874399890181186 c4.097333291955024,0 6.682666599179491,-1.9218666472580443 8.195999917229916,-4.94733328337101 zM48.807332840435926,20.696800293567577 c0,0 5.074933282082398,5.072933282102595 7.407199925195879,7.690133255671914 V30.37066686253943 c-2.173866644713137,-2.2994666434447226 -6.682799932511479,-4.22333329068257 -10.874399890181186,-4.22333329068257 c-9.487999904182214,0 -15.445333177353398,7.156266594396681 -15.445333177353398,16.01239983829335 c0,8.826133244199633 5.642133276354337,15.982399838596313 15.445333177353398,15.982399838596313 c4.884933284001177,0 8.793199911198888,-2.3026666434124063 10.968266555899907,-4.666666619538751 v1.8899999809131942 c-2.9630666367431333,4.067733292253949 -8.383866581999346,6.714133265528382 -15.128666513884697,6.714133265528382 c-12.072933211410723,0 -20.39426646070825,-8.760399911530131 -20.39426646070825,-19.91986646549914 c0,-11.158799887309074 9.235333240067188,-19.887999799154287 20.39426646070825,-19.887999799154287 c2.837466638011547,0 5.389999945567257,0.47133332857341387 7.627599922970095,1.260399987271423 zM180.18533151367066,33.55560016370863 V49.12640000646162 c0,1.0703999891902027 0.6933333263314716,1.3223999866452951 1.354666652986106,1.3223999866452951 c0.6306666602976656,0 1.229333320918494,-0.21813333113043992 1.229333320918494,-0.21813333113043992 v1.9218666472580443 c0,0 -1.2599999872754626,0.7858666587303257 -4.066666625598055,0.7858666587303257 c-3.277333300236071,0 -5.201333280805905,-1.6067999837731854 -5.201333280805905,-5.010399949400777 v-14.372399854855447 h-2.2359999774189956 v-1.4186666523397804 c2.489333308193957,-1.984399979959864 5.389333278907324,-4.255333290359407 7.6906665889998616,-6.177199937617451 h1.229333320918494 v5.673999942699187 h3.214666634202265 V33.55560016370863 zM119.57133212580167,38.25093344962455 c0,-1.8906666475731282 -0.5983999939568547,-3.372399965942675 -2.237466644070851,-3.372399965942675 c-1.639066650113996,0 -2.300533310100618,1.4817333183695467 -2.300533310100618,3.372399965942675 v12.451066540925348 h1.9223999805859917 v1.986399979939666 h-10.52813322701141 v-1.986399979939666 h1.953599980270908 v-17.146399826841268 h-1.953599980270908 v-1.9218666472580443 h8.29013324961261 v3.2141333008743183 h0.09426666571468278 c0.7874666587141674,-1.7662666488294239 2.616666640241371,-3.6255999633856493 5.547333277311706,-3.6255999633856493 c3.0890666354706795,0 4.980799949699702,1.8911999809010756 5.57866661032861,4.380799955759006 c0.22133333109812364,0.9785333234512827 0.28493333045583746,2.585333307224468 0.28493333045583746,3.403066632299644 v11.69586654855199 h2.5218666411987414 v1.986399979939666 h-9.173466574025303 zm42.520666237257295,0 c0,-1.8906666475731282 -0.5986666606208284,-3.372399965942675 -2.237333310738864,-3.372399965942675 c-1.639999983437904,0 -2.3013333100925384,1.4817333183695467 -2.3013333100925384,3.372399965942675 v12.451066540925348 h1.9226666472499654 v1.986399979939666 h-10.527999893679421 v-1.986399979939666 h1.9533333136069344 v-17.146399826841268 h-1.9533333136069344 v-1.9218666472580443 h8.28933324962069 v3.2141333008743183 h0.09599999903051146 c0.7879999920421148,-1.7662666488294239 2.614666640261569,-3.6255999633856493 5.546666610651773,-3.6255999633856493 c3.089333302134653,0 4.979999949707782,1.8911999809010756 5.57866661032861,4.380799955759006 c0.22133333109812364,0.9785333234512827 0.28533333045179793,2.585333307224468 0.28533333045179793,3.403066632299644 v11.69586654855199 h2.5213333078707936 v1.986399979939666 h-9.173333240693315 v-14.437466520865016 " stroke-width="0" fill="#ffffff" fill-opacity="1"/></g></g></g></svg>