<?xml version="1.0" encoding="UTF-8" standalone="no"?>
<svg
   xmlns:dc="http://purl.org/dc/elements/1.1/"
   xmlns:cc="http://creativecommons.org/ns#"
   xmlns:rdf="http://www.w3.org/1999/02/22-rdf-syntax-ns#"
   xmlns:svg="http://www.w3.org/2000/svg"
   xmlns="http://www.w3.org/2000/svg"
   viewBox="0 0 269.17334 82.773331"
   height="82.773331"
   width="269.17334"
   xml:space="preserve"
   id="svg2"
   version="1.1"><metadata
     id="metadata8"><rdf:RDF><cc:Work
         rdf:about=""><dc:format>image/svg+xml</dc:format><dc:type
           rdf:resource="http://purl.org/dc/dcmitype/StillImage" /></cc:Work></rdf:RDF></metadata><defs
     id="defs6" /><g
     transform="matrix(1.3333333,0,0,-1.3333333,0,82.773333)"
     id="g10"><g
       transform="scale(0.1)"
       id="g12"><path
         id="path14"
         style="fill:#f89c0e;fill-opacity:1;fill-rule:nonzero;stroke:none"
         d="m 1815.68,325.867 c -1.41,5.434 -3.54,11.582 -5.19,14.653 0,0 0.94,0.957 2.84,-0.239 1.88,-1.172 13.94,-9.453 13.94,-9.453 6.14,-8.98 9.93,-45.855 10.17,-59.101 -5.68,2.621 -13.71,7.113 -18.92,12.074 z m -36.4,34.278 c -9.92,10.878 -18.2,21.039 -26.24,33.085 5.2,9.946 8.99,36.172 6.62,46.333 -0.94,3.082 -9.45,14.429 -10.88,16.074 -2.12,2.144 -8.98,9.937 -12.29,9.937 -0.71,0 -1.41,-0.23 -1.66,-0.469 l 0.95,-8.75 c -9.22,-5.917 -21.27,-13.945 -32.15,-21.992 0,-3.062 0.24,-7.793 0.47,-9.453 1.66,-1.402 3.55,-2.597 5.68,-3.301 4.25,0.704 17.49,4.028 21.04,3.536 l -13,-19.61 -14.9,-10.64 -18.67,5.918 c -1.18,0.234 -2.37,0 -3.07,-0.961 l -13.72,-14.879 c -0.71,-0.703 -1.18,-1.426 -1.18,-3.086 l -0.47,-16.782 c 0,0 -0.24,-2.593 -0.24,-5.425 0,-12.051 5.44,-17.739 5.44,-17.739 l 8.98,13.008 c -1.18,1.875 -3.31,7.094 -3.78,9.453 0,0.469 0.24,14.414 0.24,14.414 l 8.74,6.387 23.17,-16.308 c 0,0 6.38,-11.817 12.53,-18.922 4.02,-4.961 24.11,-18.418 33.8,-24.106 0.95,-5.191 3.08,-13.711 4.73,-18.199 l 28.37,-29.082 -16.78,-21.035 c -5.91,-3.774 -11.59,-10.649 -11.12,-17.016 h 19.39 l 2.13,11.113 23.17,25.762 c 1.18,1.43 1.18,2.133 0.47,4.262 l -6.62,22.207 c 3.31,3.789 10.4,13.238 10.4,24.59 0,20.562 -22.46,25.758 -29.55,31.676 z m -104.49,42.304 c -0.71,-0.23 -17.97,-4.961 -17.97,-4.961 0,0 -8.04,-3.062 -11.59,-5.425 -3.54,-2.368 -7.56,-6.387 -7.79,-8.516 l 15.37,-3.535 c 2.36,2.593 4.96,5.426 7.32,7.324 l 3.55,1.656 12.77,12.988 c 0,0 -0.48,0.708 -1.66,0.469 z m 72.58,-132.832 21.75,20.805 8.98,-8.984 -23.41,-19.868 c -1.89,-2.359 -3.3,-6.148 -4.48,-8.511 h -17.27 c 0.95,6.382 9.94,14.414 14.43,16.558 z m 115.6,-43.98 H 1632 v 7.578 h 230.97 v -7.578" /><path
         id="path16"
         style="fill:#f89c0e;fill-opacity:1;fill-rule:nonzero;stroke:none"
         d="m 706.598,225.637 v 14.898 h 14.425 v 128.598 h -14.425 v 14.414 h 64.304 V 240.535 h 14.661 v -14.898 z m 757.082,18.926 h -0.71 c -9.22,-13.008 -21.51,-21.758 -40.43,-21.758 -25.77,0 -41.84,21.992 -41.84,48.242 0,31.656 22.46,51.758 58.39,51.758 14.66,0 22.46,-3.325 22.46,-3.325 v 9.946 c 0,19.137 -11.82,29.312 -29.07,29.312 -23.88,0 -36.18,-18.457 -36.18,-18.457 l -8.74,10.649 c 15.84,24.59 40.18,35.703 62.88,35.703 38.3,0 60.99,-22.695 60.99,-57.207 v -88.891 h 16.07 v -14.898 h -63.82 z m -2.13,59.332 c -1.42,1.41 -4.49,3.3 -10.87,3.3 -14.89,0 -18.2,-14.668 -18.2,-29.785 0,-14.898 4.49,-26.949 17.25,-26.949 6.15,0 9.93,2.613 11.82,4.727 z m 133.33,-63.36 h 19.39 V 225.637 H 1545 v 201.89 h -17.25 v 14.414 h 67.13 z M 672.676,369.133 V 252.352 c 0,-8.028 5.195,-9.918 10.16,-9.918 4.727,0 9.219,1.636 9.219,1.636 v -14.414 c 0,0 -9.453,-5.894 -30.492,-5.894 -24.59,0 -39.012,12.051 -39.012,37.578 v 107.793 h -16.789 v 10.64 c 18.687,14.883 40.437,31.915 57.691,46.329 h 9.223 v -42.555 h 19.379 v -14.414 z m 43.144,56.265 c 0,-13.945 12.532,-23.164 30.496,-23.164 17.965,0 30.497,9.219 30.497,23.164 0,13.95 -12.532,23.165 -30.497,23.165 -17.964,0 -30.496,-9.215 -30.496,-23.165 m -178.847,-91.48 c 0,14.18 -4.493,25.293 -16.782,25.293 -12.296,0 -17.261,-11.113 -17.261,-25.293 v -93.383 h 14.418 v -14.898 h -78.953 v 14.898 h 14.656 v 128.598 h -14.656 v 14.414 h 62.175 v -24.106 h 0.703 c 5.915,13.247 19.625,27.192 41.614,27.192 23.168,0 37.351,-14.184 41.843,-32.856 1.653,-7.339 2.125,-19.39 2.125,-25.523 v -87.719 h 18.907 V 225.637 H 536.973 Z M 266.289,304.602 c 0,-47.754 29.313,-86.528 79.434,-86.528 50.113,0 79.429,38.774 79.429,86.528 0,47.75 -29.316,86.519 -79.429,86.519 -50.121,0 -79.434,-38.769 -79.434,-86.519 m 58.629,0.464 c 0,48.227 4.492,69.512 20.805,69.512 16.312,0 20.8,-21.285 20.8,-69.512 0,-48.218 -4.488,-69.492 -20.8,-69.492 -16.313,0 -20.805,21.274 -20.805,69.492 m 696.922,8.047 c 0,41.606 3.31,57.207 17.5,57.207 14.41,0 17.26,-15.132 17.73,-57.207 z m 72.34,-45.386 c -7.09,-8.286 -18.2,-14.653 -34.75,-14.653 -14.43,0 -36.65,8.028 -37.59,44.668 h 84.4 c 0.23,2.832 0.47,8.52 0.47,11.352 0,44.429 -18.2,77.539 -65.72,77.539 -47.752,0 -72.103,-36.66 -72.103,-82.27 0,-45.625 24.351,-81.558 72.103,-81.558 30.73,0 50.12,14.414 61.47,37.105 z M 366.055,465.574 c 0,0 38.062,-38.047 55.554,-57.676 V 393.02 c -16.304,17.246 -50.121,31.675 -81.558,31.675 -71.16,0 -115.84,-53.672 -115.84,-120.093 0,-66.196 42.316,-119.868 115.84,-119.868 36.637,0 65.949,17.27 82.262,35 v -14.175 c -22.223,-30.508 -62.879,-50.356 -113.465,-50.356 -90.547,0 -152.957,65.703 -152.957,149.399 0,83.691 69.265,149.16 152.957,149.16 21.281,0 40.425,-3.535 57.207,-9.453 z M 1351.39,369.133 V 252.352 c 0,-8.028 5.2,-9.918 10.16,-9.918 4.73,0 9.22,1.636 9.22,1.636 v -14.414 c 0,0 -9.45,-5.894 -30.5,-5.894 -24.58,0 -39.01,12.051 -39.01,37.578 v 107.793 h -16.77 v 10.64 c 18.67,14.883 40.42,31.915 57.68,46.329 h 9.22 v -42.555 h 24.11 V 369.133 Z M 896.785,333.918 c 0,14.18 -4.488,25.293 -16.781,25.293 -12.293,0 -17.254,-11.113 -17.254,-25.293 v -93.383 h 14.418 v -14.898 h -78.961 v 14.898 h 14.652 v 128.598 h -14.652 v 14.414 h 62.176 v -24.106 h 0.707 c 5.906,13.247 19.625,27.192 41.605,27.192 23.168,0 37.356,-14.184 41.84,-32.856 1.66,-7.339 2.137,-19.39 2.137,-25.523 v -87.719 h 18.914 v -14.898 h -68.801 z m 318.905,0 c 0,14.18 -4.49,25.293 -16.78,25.293 -12.3,0 -17.26,-11.113 -17.26,-25.293 v -93.383 h 14.42 v -14.898 h -78.96 v 14.898 h 14.65 v 128.598 h -14.65 v 14.414 h 62.17 v -24.106 h 0.72 c 5.91,13.247 19.61,27.192 41.6,27.192 23.17,0 37.35,-14.184 41.84,-32.856 1.66,-7.339 2.14,-19.39 2.14,-25.523 v -87.719 h 18.91 v -14.898 h -68.8 v 108.281" /></g></g></svg>